:SAMPLES-PER-SECOND 30
:FULLY-SPECIFIED
:DEGREES
32
root  76.4593 39.5124 -3.17248 157.241 -85.6879 -160.176
RightUpLeg  -16.0977 -18.9925 0.316849
RightLeg  18.5766 -1.46472 -0.749203
RightFoot  -1.77141 -0.415168 4.80878
RightToes  0.000482159 0.542163 -0.142577
Spine  11.708 -3.84308 -4.9308
Spine1  7.10105 -6.0548 5.12733
HEad  2.93191 13.2026 -4.09723
LeftShoulder1  6.91767 -9.99268 -44.6308
LeftArm  -13.0408 -6.0237 -35.1732
LeftForeArm  29.0389 -4.94525 -4.56011
LeftHand  -0.25398 0.0180481 5.50724
RightShoulder  4.49676 7.63635 34.4118
RightArm  -11.8439 -24.4995 42.6875
RightForeArm  22.7171 8.44603 5.14768
RightHand  -1.12056 3.9408 -14.2029
LeftUpLeg  8.73441 7.96748 3.94041
LeftLeg  10.1894 17.7654 -2.29378
LeftFoot  -15.9663 -0.0165115 -2.76852
LeftToes  1.06246e-005 4.65855e-005 -8.18504e-006
33
root  75.7391 39.4013 -3.25638 157.433 -85.6082 -160.539
RightUpLeg  -14.8447 -17.5496 0.741407
RightLeg  18.4117 -1.27891 -0.683578
RightFoot  -2.4107 -0.180044 2.06342
RightToes  0.000482159 0.542163 -0.142577
Spine  11.6739 -4.1682 -4.49584
Spine1  7.36064 -6.50196 5.61174
HEad  3.0885 14.1291 -5.03728
LeftShoulder1  6.69679 -9.62063 -44.4165
LeftArm  -12.9284 -7.0348 -37.5492
LeftForeArm  30.8171 -6.32462 -4.66871
LeftHand  -0.25398 0.0180481 5.50724
RightShoulder  4.54273 7.6943 34.6109
RightArm  -11.5758 -25.0989 42.6541
RightForeArm  22.154 8.17555 5.26085
RightHand  -1.01135 3.22548 -13.863
LeftUpLeg  10.1146 8.24343 4.29385
LeftLeg  10.3538 17.162 -2.27539
LeftFoot  -16.8358 -0.0747226 -3.67386
LeftToes  1.06246e-005 4.65855e-005 -8.18504e-006
34
root  74.9258 39.3102 -3.35504 153.481 -84.9916 -156.567
RightUpLeg  -13.8032 -15.3473 1.57812
RightLeg  19.1463 -2.37592 -1.12935
RightFoot  -3.42235 0.105204 -1.85643
RightToes  0.000482159 0.542163 -0.142577
Spine  11.2041 -4.43915 -2.82735
Spine1  7.75676 -6.65555 5.72454
HEad  3.26269 15.52 -6.20093
LeftShoulder1  6.52525 -9.30058 -44.3556
LeftArm  -13.4681 -6.39617 -39.2593
LeftForeArm  32.5498 -10.086 -4.50479
LeftHand  -0.25398 0.0180481 5.50724
RightShoulder  4.52544 7.59674 34.8082
RightArm  -11.9613 -25.1635 42.0284
RightForeArm  19.6911 8.1738 5.29257
RightHand  -0.91135 2.3132 -13.9332
LeftUpLeg  11.3946 9.34539 5.15213
LeftLeg  10.7333 16.5414 -1.62673
LeftFoot  -17.6124 -0.114174 -4.01305
LeftToes  1.06246e-005 4.65855e-005 -8.18504e-006
35
root  74.0799 39.2087 -3.45305 146.706 -84.1196 -149.715
RightUpLeg  -13.0958 -14.3699 2.56143
RightLeg  20.4305 -2.79168 -1.36122
RightFoot  -4.6304 0.185565 -3.66136
RightToes  0.000482159 0.542163 -0.142577
Spine  10.8558 -4.74919 -0.474647
Spine1  8.14234 -6.76854 5.77721
HEad  2.92101 15.4171 -7.10664
LeftShoulder1  6.66301 -9.40285 -44.9564
LeftArm  -13.1131 -4.35604 -39.6338
LeftForeArm  31.4826 -15.3681 -3.94408
LeftHand  -0.25398 0.0180481 5.50724
RightShoulder  4.56551 7.6106 35.1124
RightArm  -12.1811 -23.9484 40.6712
RightForeArm  15.8669 7.74292 5.36451
RightHand  -0.938046 1.81775 -15.237
LeftUpLeg  11.8697 12.5077 6.66967
LeftLeg  12.8714 13.6445 0.274059
LeftFoot  -18.6424 -0.23698 -5.38969
LeftToes  1.06246e-005 4.65855e-005 -8.18504e-006
36
root  73.2964 39.1018 -3.56102 137.85 -83.9049 -140.672
RightUpLeg  -12.6692 -15.7225 3.17923
RightLeg  21.8553 -2.04007 -1.11897
RightFoot  -5.9686 0.119048 -3.38218
RightToes  0.000482159 0.542163 -0.142577
Spine  11.0594 -5.18192 1.51566
Spine1  8.05806 -7.06722 6.21997
HEad  2.36533 15.7798 -7.70216
LeftShoulder1  6.92295 -9.72575 -45.6014
LeftArm  -12.6954 -2.29846 -39.0716
LeftForeArm  28.8197 -18.9673 -3.50251
LeftHand  -0.25398 0.0180481 5.50724
RightShoulder  4.703 7.76971 35.7396
RightArm  -11.8036 -21.3869 38.7949
RightForeArm  12.2471 6.65725 5.48772
RightHand  -1.08292 1.93373 -17.2728
LeftUpLeg  10.2469 15.9702 8.13454
LeftLeg  18.2213 8.66136 3.09622
LeftFoot  -18.8269 -0.490829 -9.34189
LeftToes  1.06246e-005 4.65855e-005 -8.18504e-006
37
root  72.6008 39.0286 -3.69829 126.047 -84.2564 -128.47
RightUpLeg  -12.1534 -18.2556 3.57273
RightLeg  22.6407 -1.04897 -0.715591
RightFoot  -7.39246 0.0574148 -3.13648
RightToes  0.000482159 0.542163 -0.142577
Spine  11.4434 -5.50531 3.32463
Spine1  7.73156 -7.1435 6.65537
HEad  2.1004 15.1546 -7.45666
LeftShoulder1  7.02076 -9.93612 -45.5207
LeftArm  -12.5656 -1.24551 -38.3487
LeftForeArm  26.9339 -19.3412 -3.56866
LeftHand  -0.25398 0.0180481 5.50724
RightShoulder  4.88449 7.94297 36.6709
RightArm  -11.3347 -18.2835 37.0152
RightForeArm  10.3718 5.78961 5.58039
RightHand  -1.24456 2.45307 -18.5464
LeftUpLeg  5.59079 13.0264 8.25333
LeftLeg  27.5052 9.38245 5.71256
LeftFoot  -15.8509 -0.416366 -13.0948
LeftToes  1.06246e-005 4.65855e-005 -8.18504e-006
38
root  71.9226 39.0066 -3.85975 117.411 -84.31 -119.527
RightUpLeg  -11.0743 -19.7624 3.82105
RightLeg  22.6032 -0.564147 -0.352014
RightFoot  -8.81146 0.0144 -3.34051
RightToes  0.000482159 0.542163 -0.142577
Spine  11.6704 -5.29949 5.62884
Spine1  7.70148 -6.36697 6.03878
HEad  2.0467 13.3267 -6.46369
LeftShoulder1  7.0364 -10.1092 -45.0263
LeftArm  -12.4387 -0.813535 -37.4189
LeftForeArm  26.4861 -18.0519 -3.74279
LeftHand  -0.25398 0.0180481 5.50724
RightShoulder  5.06444 8.12879 37.5094
RightArm  -11.2047 -15.3942 35.7536
RightForeArm  9.75222 6.05269 5.66953
RightHand  -1.36728 3.15923 -18.7148
LeftUpLeg  -0.545547 10.9385 8.49587
LeftLeg  38.7251 10.1614 8.99286
LeftFoot  -8.899 0.269592 -11.994
LeftToes  1.06246e-005 4.65855e-005 -8.18504e-006
39
root  71.2066 39.0102 -4.00672 117.64 -83.8205 -119.819
RightUpLeg  -9.38396 -18.7481 3.73101
RightLeg  22.2574 -1.38037 0.00571746
RightFoot  -10.0225 -0.0310465 -3.16089
RightToes  0.000482159 0.542163 -0.142577
Spine  11.9047 -4.5872 8.48288
Spine1  7.99603 -4.78827 4.3851
HEad  1.96142 11.024 -5.44863
LeftShoulder1  7.23295 -10.4893 -45.0276
LeftArm  -12.5578 0.171551 -35.7021
LeftForeArm  26.5439 -17.1615 -3.85547
LeftHand  -0.25398 0.0180481 5.50724
RightShoulder  5.23514 8.42896 37.8349
RightArm  -11.1135 -12.6253 34.8773
RightForeArm  8.84723 7.15095 5.88559
RightHand  -1.45793 3.79118 -18.6057
LeftUpLeg  -6.38805 10.5888 8.78623
LeftLeg  48.6368 9.04265 11.1874
LeftFoot  -1.625 0.576176 -6.59028
LeftToes  1.06246e-005 4.65855e-005 -8.18504e-006
40
root  70.4285 39.0726 -4.12439 122.381 -83.5208 -124.755
RightUpLeg  -7.36683 -16.7095 3.06534
RightLeg  21.5887 -2.83067 0.35752
RightFoot  -10.8976 -0.0634717 -2.67975
RightToes  0.000482159 0.542163 -0.142577
Spine  12.1759 -3.7619 10.5965
Spine1  8.18129 -3.21983 2.88411
HEad  1.9241 9.23908 -5.11804
LeftShoulder1  7.61013 -10.9928 -45.7618
LeftArm  -12.6306 2.28596 -33.2528
LeftForeArm  25.6039 -17.0967 -3.88201
LeftHand  -0.25398 0.0180481 5.50724
RightShoulder  5.35086 8.74933 37.6391
RightArm  -10.5938 -9.41474 34.0077
RightForeArm  7.51707 8.26964 6.23077
RightHand  -1.50926 4.13529 -18.5792
LeftUpLeg  -11.2142 10.9075 8.49422
LeftLeg  55.2641 6.34129 10.1976
LeftFoot  1.33245 0.303907 -2.68628
LeftToes  1.06246e-005 4.65855e-005 -8.18504e-006
41
root  69.5806 39.2219 -4.23495 126.925 -84.0846 -129.201
RightUpLeg  -5.15672 -14.415 1.65823
RightLeg  20.0992 -4.87149 0.843876
RightFoot  -11.5548 -0.0821081 -2.20842
RightToes  0.000482159 0.542163 -0.142577
Spine  12.0485 -3.04816 11.1791
Spine1  8.24919 -2.20083 2.0785
HEad  1.98005 8.15194 -5.42836
LeftShoulder1  7.92884 -11.3316 -46.6194
LeftArm  -12.7859 5.04527 -30.7868
LeftForeArm  24.3952 -17.2437 -3.86484
LeftHand  -0.25398 0.0180481 5.50724
RightShoulder  5.34452 8.82168 37.3411
RightArm  -9.71071 -5.63566 33.0089
RightForeArm  6.32814 9.52266 6.5148
RightHand  -1.52315 4.31704 -18.4117
LeftUpLeg  -15.448 11.0112 7.20543
LeftLeg  58.4077 3.98069 7.52879
LeftFoot  0.233992 0.24394 -2.45274
LeftToes  1.06246e-005 4.65855e-005 -8.18504e-006
42
root  68.6918 39.3744 -4.34689 129.885 -85.1441 -131.746
RightUpLeg  -2.97375 -11.9263 0.154046
RightLeg  18.0821 -7.38179 1.45031
RightFoot  -12.1899 -0.093529 -1.50705
RightToes  0.000482159 0.542163 -0.142577
Spine  11.4063 -2.467 11.2636
Spine1  8.53565 -1.48364 1.30092
HEad  1.832 7.14416 -5.80986
LeftShoulder1  8.0429 -11.4423 -46.9472
LeftArm  -13.2809 7.75355 -28.8466
LeftForeArm  24.2363 -17.2547 -3.77808
LeftHand  -0.25398 0.0180481 5.50724
RightShoulder  5.25554 8.63506 37.2774
RightArm  -8.63538 -1.90677 32.0233
RightForeArm  4.31791 11.7823 6.52269
RightHand  -1.54249 4.47303 -18.3563
LeftUpLeg  -19.2329 10.9425 5.46139
LeftLeg  58.2239 3.14056 6.00083
LeftFoot  -1.90709 0.295344 -3.42747
LeftToes  1.06246e-005 4.65855e-005 -8.18504e-006
43
root  67.7964 39.4905 -4.45598 131.676 -86.0961 -133.047
RightUpLeg  -0.901061 -10.1548 -0.917549
RightLeg  16.018 -9.42541 1.99913
RightFoot  -12.6221 -0.0961576 -0.941119
RightToes  0.000482159 0.542163 -0.142577
Spine  10.7452 -1.93964 11.6328
Spine1  8.8791 -0.722632 0.0293016
HEad  1.29286 5.73929 -5.8907
LeftShoulder1  8.00212 -11.4566 -46.6576
LeftArm  -14.0295 10.2531 -27.5039
LeftForeArm  24.744 -17.0043 -3.65192
LeftHand  -0.25398 0.0180481 5.50724
RightShoulder  5.22089 8.54125 37.3248
RightArm  -6.87255 0.996082 31.117
RightForeArm  -0.105232 15.4521 6.08459
RightHand  -1.58383 4.45747 -18.8611
LeftUpLeg  -22.0736 11.3606 3.74309
LeftLeg  54.7241 3.67517 6.03918
LeftFoot  -3.57907 0.233301 -3.09544
LeftToes  1.06246e-005 4.65855e-005 -8.18504e-006
44
root  66.8971 39.5869 -4.559 132.122 -86.9706 -132.979
RightUpLeg  1.12096 -9.26719 -1.68518
RightLeg  13.9169 -10.8973 2.44639
RightFoot  -12.8437 -0.100257 -0.998848
RightToes  0.000482159 0.542163 -0.142577
Spine  10.4222 -1.4445 11.8763
Spine1  8.84927 -0.0121359 -1.23297
HEad  0.482982 4.24247 -5.72039
LeftShoulder1  7.90116 -11.439 -46.1085
LeftArm  -14.6707 12.6046 -26.5569
LeftForeArm  24.6577 -16.1984 -3.5873
LeftHand  -0.25398 0.0180481 5.50724
RightShoulder  5.30786 8.77332 37.2184
RightArm  -5.03517 2.84424 30.1402
RightForeArm  -5.21552 20.07 5.43698
RightHand  -1.60245 4.18869 -19.5826
LeftUpLeg  -23.6936 12.4107 2.01145
LeftLeg  48.0275 4.24592 5.49515
LeftFoot  -5.01356 0.151687 -2.21809
LeftToes  1.06246e-005 4.65855e-005 -8.18504e-006
45
root  65.9515 39.6277 -4.6578 125.973 -88.0276 -126.242
RightUpLeg  3.21905 -8.90637 -2.38043
RightLeg  11.7283 -11.8117 2.83766
RightFoot  -13.3476 -0.103906 -0.816549
RightToes  0.000482159 0.542163 -0.142577
Spine  10.218 -1.02817 11.6747
Spine1  8.65181 0.501735 -2.12803
HEad  -0.41214 3.14084 -5.49639
LeftShoulder1  7.77793 -11.3637 -45.6028
LeftArm  -14.9056 14.4374 -25.6565
LeftForeArm  23.7466 -14.3832 -3.66333
LeftHand  -0.25398 0.0180481 5.50724
RightShoulder  5.43212 9.13991 36.956
RightArm  -5.33244 3.93568 29.0423
RightForeArm  -6.90979 24.8826 5.58938
RightHand  -1.61485 4.05897 -19.9866
LeftUpLeg  -24.2765 13.5502 0.161815
LeftLeg  39.0999 3.71151 3.6249
LeftFoot  -6.24539 0.162943 -2.84397
LeftToes  1.06246e-005 4.65855e-005 -8.18504e-006
46
root  64.9187 39.5514 -4.74604 97.9304 -88.9214 -97.6948
RightUpLeg  5.35989 -9.02421 -3.01459
RightLeg  10.1345 -12.1292 3.13978
RightFoot  -14.4214 -0.0898616 0.264821
RightToes  0.000482159 0.542163 -0.142577
Spine  9.8733 -0.707658 11.5768
Spine1  8.78513 1.00358 -3.14925
HEad  -1.29374 2.14922 -5.11651
LeftShoulder1  7.62935 -11.2493 -45.0577
LeftArm  -14.649 15.211 -24.6039
LeftForeArm  22.6267 -11.0827 -3.84282
LeftHand  -0.25398 0.0180481 5.50724
RightShoulder  5.45729 9.30786 36.5992
RightArm  -6.88244 4.57801 28.2392
RightForeArm  -6.03304 29.1347 6.64226
RightHand  -1.77492 4.68789 -20.5783
LeftUpLeg  -24.0679 14.2765 -1.56852
LeftLeg  30.087 2.83257 2.09484
LeftFoot  -6.6963 0.213462 -4.23531
LeftToes  1.06246e-005 4.65855e-005 -8.18504e-006
